<svg width="45" height="45" viewBox="0 0 45 45" fill="none" xmlns="http://www.w3.org/2000/svg">
<path d="M22.4998 22.0076C29.0787 22.0076 34.4124 17.0811 34.4124 11.0038C34.4124 4.92651 32.6613 0 22.4998 0C12.3384 0 10.587 4.92651 10.587 11.0038C10.587 17.0811 15.9207 22.0076 22.4998 22.0076Z" fill="white"/>
<path d="M44.9748 38.3654C44.7542 27.7788 42.9361 24.7622 29.0236 22.8527C29.0236 22.8527 27.0652 24.7505 22.5005 24.7505C17.9359 24.7505 15.9771 22.8527 15.9771 22.8527C2.21639 24.7414 0.287742 27.7132 0.0341503 38.0215C0.0133558 38.8633 0.00371934 38.9075 0 38.8098C0.000845305 38.9929 0.00185929 39.3315 0.00185929 39.922C0.00185929 39.922 3.3141 45 22.5005 45C41.6866 45 44.9992 39.922 44.9992 39.922C44.9992 39.5426 44.9995 39.2788 45 39.0993C44.9963 39.1597 44.9888 39.0426 44.9748 38.3654Z" fill="white"/>
</svg>
