<svg width="22" height="40" viewBox="0 0 22 40" fill="none" xmlns="http://www.w3.org/2000/svg">
<path d="M20.9218 0.00818571L15.7404 0C9.91918 0 6.15727 3.80022 6.15727 9.68206V14.1461H0.947546C0.497365 14.1461 0.132812 14.5055 0.132812 14.9487V21.4167C0.132812 21.8599 0.49778 22.2189 0.947546 22.2189H6.15727V38.5395C6.15727 38.9828 6.52182 39.3417 6.972 39.3417H13.7692C14.2194 39.3417 14.5839 38.9824 14.5839 38.5395V22.2189H20.6753C21.1255 22.2189 21.4901 21.8599 21.4901 21.4167L21.4925 14.9487C21.4925 14.7359 21.4065 14.5321 21.2539 14.3815C21.1014 14.2309 20.8936 14.1461 20.6774 14.1461H14.5839V10.3619C14.5839 8.54301 15.0241 7.61967 17.4305 7.61967L20.921 7.61844C21.3708 7.61844 21.7353 7.25909 21.7353 6.81624V0.810385C21.7353 0.367948 21.3712 0.00900428 20.9218 0.00818571Z" fill="#4B4B4B"/>
</svg>
