<svg width="40" height="40" viewBox="0 0 40 40" fill="none" xmlns="http://www.w3.org/2000/svg">
<path fill-rule="evenodd" clip-rule="evenodd" d="M0.664062 8.85547C0.664062 3.96473 4.69074 0 9.6579 0H30.3421C35.3093 0 39.3359 3.96473 39.3359 8.85547V31.1445C39.3359 36.0353 35.3093 40 30.3421 40H9.6579C4.69074 40 0.664062 36.0353 0.664062 31.1445V8.85547ZM10.7033 19.999C10.7033 14.901 14.9006 10.7683 20.0783 10.7683C25.256 10.7683 29.4533 14.901 29.4533 19.999V20.5436C29.4533 25.6416 25.256 29.7743 20.0783 29.7743C14.9006 29.7743 10.7033 25.6416 10.7033 20.5436V19.999ZM30.9749 5.76953C29.5726 5.76953 28.4358 6.88881 28.4358 8.26953C28.4358 9.65024 29.5726 10.7695 30.9749 10.7695C32.3771 10.7695 33.5139 9.65024 33.5139 8.26953C33.5139 6.88881 32.3771 5.76953 30.9749 5.76953Z" fill="#4B4B4B"/>
<path d="M14.2655 19.9999C14.2655 16.8816 16.8328 14.3538 19.9998 14.3538C23.1668 14.3538 25.7342 16.8816 25.7342 19.9999C25.7342 23.1182 23.1668 25.6461 19.9998 25.6461C16.8328 25.6461 14.2655 23.1182 14.2655 19.9999Z" fill="#4B4B4B"/>
</svg>
