<svg width="43" height="34" viewBox="0 0 43 34" fill="none" xmlns="http://www.w3.org/2000/svg">
<path d="M42.3154 4.06968C40.7466 4.74727 39.0749 5.19641 37.3321 5.41448C39.125 4.36045 40.4935 2.70411 41.1368 0.707677C39.4652 1.68902 37.6195 2.38219 35.6525 2.76901C34.0652 1.10489 31.8029 0.0742188 29.3349 0.0742188C24.5467 0.0742188 20.6918 3.90093 20.6918 8.59216C20.6918 9.26716 20.7498 9.91619 20.8922 10.5341C13.7019 10.1888 7.33952 6.79563 3.06542 1.62671C2.31923 2.90142 1.88154 4.36045 1.88154 5.93111C1.88154 8.88033 3.42401 11.4946 5.72322 13.0082C4.33368 12.9822 2.9705 12.585 1.81562 11.9594C1.81562 11.9853 1.81562 12.0191 1.81562 12.0528C1.81562 16.1911 4.81356 19.6284 8.74489 20.4202C8.04089 20.6097 7.2736 20.7006 6.47732 20.7006C5.92361 20.7006 5.36463 20.6694 4.83992 20.5552C5.96052 23.9276 9.14039 26.4069 12.9214 26.4874C9.97887 28.7538 6.24265 30.1194 2.19794 30.1194C1.48867 30.1194 0.808398 30.0882 0.128128 30.0025C3.95926 32.4351 8.49967 33.8241 13.396 33.8241C29.3112 33.8241 38.0123 20.8434 38.0123 9.59167C38.0123 9.21523 37.9992 8.85177 37.9807 8.49091C39.6972 7.29149 41.1395 5.79352 42.3154 4.06968Z" fill="#4B4B4B"/>
</svg>
