<svg width="50" height="30" viewBox="0 0 50 30" fill="none" xmlns="http://www.w3.org/2000/svg">
<path fill-rule="evenodd" clip-rule="evenodd" d="M43.0311 19.2253C44.6723 20.9017 46.4046 22.4789 47.8767 24.3243C48.5269 25.1444 49.1426 25.9906 49.6135 26.9423C50.2808 28.2952 49.6764 29.784 48.5168 29.8648L41.3087 29.8614C39.4496 30.0228 37.9666 29.2398 36.7195 27.91C35.7215 26.8466 34.7974 25.7148 33.8377 24.6155C33.4443 24.1661 33.0326 23.7433 32.5406 23.4092C31.5566 22.741 30.7025 22.9456 30.1402 24.0192C29.5675 25.1112 29.4376 26.3204 29.3814 27.5374C29.3041 29.3131 28.7911 29.7799 27.0861 29.8612C23.4424 30.041 19.9843 29.4643 16.7719 27.5413C13.9397 25.8461 11.7434 23.4529 9.83181 20.7435C6.1099 15.4679 3.25965 9.67075 0.697956 3.71124C0.121339 2.36856 0.543032 1.64781 1.95913 1.6223C4.31063 1.57451 6.6618 1.57791 9.01607 1.6189C9.97178 1.63353 10.6045 2.20699 10.9735 3.15155C12.2457 6.42416 13.8025 9.53776 15.7565 12.4238C16.2769 13.1922 16.8075 13.9605 17.5631 14.5014C18.399 15.1002 19.0354 14.9017 19.4287 13.9275C19.6782 13.3099 19.7874 12.6446 19.8437 11.983C20.03 9.70698 20.0545 7.43488 19.7278 5.16685C19.5272 3.75138 18.7651 2.83505 17.415 2.5672C16.726 2.43063 16.8286 2.16244 17.1622 1.75104C17.7416 1.04152 18.2865 0.599854 19.3727 0.599854H27.519C28.8015 0.864649 29.0863 1.46737 29.2619 2.81737L29.2689 12.2838C29.2549 12.8065 29.5184 14.3573 30.4182 14.7032C31.1384 14.9495 31.613 14.3468 32.0451 13.869C33.9956 11.7034 35.3876 9.14405 36.6312 6.49389C37.1832 5.32859 37.6577 4.11838 38.1176 2.9092C38.4583 2.01193 38.993 1.57043 39.9591 1.58999L47.7994 1.5973C48.0319 1.5973 48.2671 1.60087 48.4923 1.64118C49.8135 1.87672 50.1755 2.47128 49.7674 3.82094C49.1245 5.93845 47.8736 7.70307 46.6504 9.47586C45.3429 11.3685 43.9445 13.1964 42.6479 15.1003C41.4567 16.8389 41.5513 17.7153 43.0311 19.2253Z" fill="#4B4B4B"/>
</svg>
