<svg width="50" height="34" viewBox="0 0 50 34" fill="none" xmlns="http://www.w3.org/2000/svg">
<path d="M48.0325 5.29041C47.4674 3.2217 45.8109 1.59095 43.7101 1.03391C39.8724 0 24.5209 0 24.5209 0C24.5209 0 9.17014 0 5.33236 0.994714C3.27203 1.55116 1.5751 3.22199 1.00996 5.29041C0 9.06885 0 16.9048 0 16.9048C0 16.9048 0 24.7803 1.00996 28.5193C1.5757 30.5877 3.23162 32.2184 5.33266 32.7755C9.21055 33.8097 24.5215 33.8097 24.5215 33.8097C24.5215 33.8097 39.8724 33.8097 43.7101 32.815C45.8112 32.2582 47.4674 30.6275 48.0331 28.5591C49.0428 24.7803 49.0428 16.9446 49.0428 16.9446C49.0428 16.9446 49.0832 9.06885 48.0325 5.29041ZM19.6334 24.144V9.66568L32.3989 16.9048L19.6334 24.144Z" fill="#4B4B4B"/>
</svg>
